<svg xmlns="http://www.w3.org/2000/svg" width="13" height="17" viewBox="0 0 13 17"><g><g><path fill="#fff" d="M12.955 14.912l-2.288-3.866a.388.388 0 0 0-.525-.133L8.033 12.1c-.416-.236-1.492-.967-2.491-2.655-1.037-1.751-1.226-3.282-1.26-3.71l2.097-1.18a.383.383 0 0 0 .18-.228.36.36 0 0 0-.036-.282L4.234.179A.389.389 0 0 0 3.71.045l-2.347 1.32a.376.376 0 0 0-.083.063l-.004.003c-1.96 1.377-1.595 5.669.83 9.767 1.727 2.917 4.187 5.144 6.268 5.675.743.188 1.406.161 1.972-.081l.051-.018a.373.373 0 0 0 .065-.03l2.35-1.322a.38.38 0 0 0 .18-.227.362.362 0 0 0-.037-.283z"/></g></g></svg>