<svg width="0" height="0" class="hidden">
  <symbol xmlns="http://www.w3.org/2000/svg" viewBox="0 0 443.52 443.52" id="next-down">
    <path d="M233.929 336.226l204.8-204.8c6.548-6.78 6.36-17.584-.42-24.132-6.614-6.388-17.099-6.388-23.712 0L221.863 300.028 29.129 107.294c-6.664-6.663-17.468-6.663-24.132 0-6.663 6.665-6.663 17.468 0 24.132l204.8 204.8c6.665 6.663 17.468 6.663 24.132 0z"
      data-original="#000000" data-old_color="#000000" fill="#FFF"></path>
  </symbol>
  <symbol xmlns="http://www.w3.org/2000/svg" viewBox="0 0 443.52 443.52" id="next-up">
    <path d="M209.591 107.294l-204.8 204.8c-6.548 6.78-6.36 17.584.42 24.132 6.614 6.388 17.099 6.388 23.712 0l192.734-192.734 192.734 192.734c6.664 6.663 17.468 6.663 24.132 0 6.663-6.665 6.663-17.468 0-24.132l-204.8-204.8c-6.665-6.663-17.468-6.663-24.132 0z"
      data-original="#000000" data-old_color="#000000" fill="#FFF"></path>
  </symbol>
</svg>